<svg id="logo" xmlns="http://www.w3.org/2000/svg" viewBox="0 0 441.01 465.01"><defs><style>.cls-3{fill:#e95555}</style></defs><path fill="#fff" opacity=".2" d="M220.6 95.9l220.41 68.91V94.98L220.5 0 0 94.98v269.83l65.27 29.67V270.95l154.95 6.23.41.02 153.85-11.23v49.65l-153.9 48.65-113.95-38.4v87.4l113.87 51.74 220.51-100.2V195.73l-219.97-16.4-.54-.05-155.23 11.58v-42.2L220.6 95.9z"/><path fill="#c04646" d="M113.87 335.94v72.67l106.63 48.45v-85.19l-106.63-35.93z"/><path class="cls-3" d="M220.5 7.88v80.41l213.27 66.68V99.73L220.5 7.88zM220.5 269.95l161.21-11.76v62.72L220.5 371.87v85.19l213.27-96.9V202.44l-213.27-15.9v83.41z"/><path fill="#a93c3c" d="M220.5 269.95v-83.41L58.04 198.66v-55.19L220.5 88.29V7.88L7.23 99.73v260.43l50.81 23.09V263.42l162.46 6.53z"/></svg>