<svg id="Layer_1" data-name="Layer 1" xmlns="http://www.w3.org/2000/svg" viewBox="0 0 391.15 790.39"><defs><style>.cls-1{fill:#fff}</style></defs><path class="cls-1" d="M562.66 618.3A167.45 167.45 0 0 0 605 565.78a143.57 143.57 0 0 0 15.74-65.13V195.32A143.51 143.51 0 0 0 605 130.19c-15.16-29.89-40.2-54.91-71.34-72.48S465.23 30 425.2 30c-53.39 0-101.94 18-137.47 47.67a167.45 167.45 0 0 0-42.37 52.52 143.38 143.38 0 0 0-15.74 65.13v305.33a143.44 143.44 0 0 0 15.74 65.13c15.15 29.88 40.19 54.9 71.33 72.47a216.72 216.72 0 0 0 77.73 25.65v-25.21c-35.31-5.31-66.75-19.52-90.7-39.55a142.3 142.3 0 0 1-36.1-44.64 118.32 118.32 0 0 1-13-53.85V195.32a118.43 118.43 0 0 1 13.05-53.85c12.63-25 34-46.62 61.33-62S389.39 54.94 425.2 55c47.74 0 90.74 16.19 121.47 41.87a142.3 142.3 0 0 1 36.1 44.64 118.29 118.29 0 0 1 13 53.85v305.29a118.32 118.32 0 0 1-13 53.85c-12.64 25-34 46.62-61.33 62-24.1 13.6-52.75 22.27-83.77 24.11V335.29h-24.95v437.34l-30.46-30.46-17.64 17.64 60.57 60.58 60.59-60.58-17.65-17.64-30.46 30.45v-107c48.44-2.62 92.24-20.01 124.99-47.32z" transform="translate(-229.62 -30)"/><path class="cls-1" d="M488 190.26A62.76 62.76 0 1 0 425.2 253a62.75 62.75 0 0 0 62.8-62.74zm-100.56 0A37.8 37.8 0 1 1 398.46 217a37.62 37.62 0 0 1-11.07-26.74z" transform="translate(-229.62 -30)"/></svg>